<svg width="33" height="33" viewBox="0 0 33 33" fill="none" xmlns="http://www.w3.org/2000/svg">
<rect x="0.984375" y="0.90625" width="32" height="32" rx="16" fill="black" fill-opacity="0.2"/>
<g clip-path="url(#clip0_1_1777)">
<path fill-rule="evenodd" clip-rule="evenodd" d="M14.032 10.9062C14.7684 10.9062 15.3653 11.5032 15.3653 12.2396V14.2396H19.3653C20.1017 14.2396 20.6987 14.8365 20.6987 15.5729C20.6987 16.3093 20.1017 16.9062 19.3653 16.9062H15.3653V18.2396C15.3653 19.3442 16.2608 20.2396 17.3653 20.2396H19.3653C20.1017 20.2396 20.6987 20.8365 20.6987 21.5729C20.6987 22.3093 20.1017 22.9062 19.3653 22.9062H17.3653C14.788 22.9062 12.6987 20.8169 12.6987 18.2396V12.2396C12.6987 11.5032 13.2956 10.9062 14.032 10.9062Z" fill="white"/>
</g>
<defs>
<clipPath id="clip0_1_1777">
<rect width="12" height="12" fill="white" transform="translate(10.9844 10.9062)"/>
</clipPath>
</defs>
</svg>
