<svg width="33" height="33" viewBox="0 0 33 33" fill="none" xmlns="http://www.w3.org/2000/svg">
<rect x="0.984375" y="0.90625" width="32" height="32" rx="16" fill="black" fill-opacity="0.2"/>
<g clip-path="url(#clip0_1_1781)">
<path fill-rule="evenodd" clip-rule="evenodd" d="M12.7844 13.7063H21.1844C21.5157 13.7063 21.7844 13.975 21.7844 14.3063V19.1063C21.7844 19.4377 21.5157 19.7063 21.1844 19.7063H12.7844C12.453 19.7063 12.1844 19.4377 12.1844 19.1063V14.3063C12.1844 13.975 12.453 13.7063 12.7844 13.7063ZM10.9844 14.3063C10.9844 13.3122 11.7903 12.5063 12.7844 12.5063H21.1844C22.1785 12.5063 22.9844 13.3122 22.9844 14.3063V19.1063C22.9844 20.1005 22.1785 20.9063 21.1844 20.9063H12.7844C11.7903 20.9063 10.9844 20.1005 10.9844 19.1063V14.3063ZM15.7844 14.9063L18.1844 16.7063L15.7844 18.5063V14.9063Z" fill="white"/>
</g>
<defs>
<clipPath id="clip0_1_1781">
<rect width="12" height="12" fill="white" transform="translate(10.9844 10.9062)"/>
</clipPath>
</defs>
</svg>
