<svg width="33" height="33" viewBox="0 0 33 33" fill="none" xmlns="http://www.w3.org/2000/svg">
<rect x="0.984375" y="0.90625" width="32" height="32" rx="16" fill="black" fill-opacity="0.2"/>
<g clip-path="url(#clip0_1_1785)">
<path d="M13.3844 16.9062C13.3844 18.8945 14.9961 20.5063 16.9844 20.5063C18.5518 20.5063 19.8853 19.5045 20.3795 18.1062H16.9844V15.7063H22.8672V18.1062H22.8644C22.3084 20.8449 19.8871 22.9062 16.9844 22.9062C13.6707 22.9062 10.9844 20.22 10.9844 16.9062C10.9844 13.5925 13.6707 10.9062 16.9844 10.9062C19.0514 10.9062 20.8743 11.9515 21.9533 13.5422L19.9868 14.9191C19.3421 13.9471 18.2381 13.3063 16.9844 13.3063C14.9961 13.3063 13.3844 14.918 13.3844 16.9062Z" fill="white"/>
</g>
<defs>
<clipPath id="clip0_1_1785">
<rect width="12" height="12" fill="white" transform="translate(10.9844 10.9062)"/>
</clipPath>
</defs>
</svg>
