<svg width="33" height="33" viewBox="0 0 33 33" fill="none" xmlns="http://www.w3.org/2000/svg">
<rect x="0.984375" y="0.90625" width="32" height="32" rx="16" fill="black" fill-opacity="0.2"/>
<g clip-path="url(#clip0_1_1789)">
<path fill-rule="evenodd" clip-rule="evenodd" d="M16.9844 14.179C15.4782 14.179 14.2571 15.4 14.2571 16.9062C14.2571 18.4125 15.4782 19.6335 16.9844 19.6335C18.4906 19.6335 19.7116 18.4125 19.7116 16.9062C19.7116 15.4 18.4906 14.179 16.9844 14.179ZM15.348 16.9062C15.348 17.81 16.0806 18.5426 16.9844 18.5426C17.8881 18.5426 18.6207 17.81 18.6207 16.9062C18.6207 16.0025 17.8881 15.2699 16.9844 15.2699C16.0806 15.2699 15.348 16.0025 15.348 16.9062Z" fill="white"/>
<path d="M20.2571 13.0881C19.9558 13.0881 19.7116 13.3323 19.7116 13.6336C19.7116 13.9348 19.9558 14.179 20.2571 14.179C20.5583 14.179 20.8025 13.9348 20.8025 13.6336C20.8025 13.3323 20.5583 13.0881 20.2571 13.0881Z" fill="white"/>
<path fill-rule="evenodd" clip-rule="evenodd" d="M13.1662 10.9062C11.9612 10.9062 10.9844 11.8831 10.9844 13.0881V20.7244C10.9844 21.9295 11.9612 22.9062 13.1662 22.9062H20.8025C22.0076 22.9062 22.9844 21.9295 22.9844 20.7244V13.0881C22.9844 11.8831 22.0076 10.9062 20.8025 10.9062H13.1662ZM20.8025 11.9972H13.1662C12.5637 11.9972 12.0753 12.4856 12.0753 13.0881V20.7244C12.0753 21.327 12.5637 21.8154 13.1662 21.8154H20.8025C21.4051 21.8154 21.8935 21.327 21.8935 20.7244V13.0881C21.8935 12.4856 21.4051 11.9972 20.8025 11.9972Z" fill="white"/>
</g>
<defs>
<clipPath id="clip0_1_1789">
<rect width="12" height="12" fill="white" transform="translate(10.9844 10.9062)"/>
</clipPath>
</defs>
</svg>
