<svg width="25" height="25" viewBox="0 0 25 25" fill="none" xmlns="http://www.w3.org/2000/svg">
<g clip-path="url(#clip0_1_1738)">
<path d="M19.125 24.625H4.96875C2.25482 24.625 0.046875 22.417 0.046875 19.7031V5.54688C0.046875 2.83295 2.25482 0.625 4.96875 0.625H19.125C21.8389 0.625 24.0469 2.83295 24.0469 5.54688V19.7031C24.0469 22.417 21.8389 24.625 19.125 24.625Z" fill="#00C3FF"/>
<path d="M19.125 0.625H12.0469V24.625H19.125C21.8389 24.625 24.0469 22.417 24.0469 19.7031V5.54688C24.0469 2.83295 21.8389 0.625 19.125 0.625Z" fill="#00AAF0"/>
<path d="M7.43666 19.1179C7.21987 19.4934 6.82513 19.7035 6.4198 19.7036C6.2211 19.7036 6.01991 19.6531 5.83583 19.5468C5.27624 19.2238 5.08382 18.5057 5.40688 17.9461L5.63737 17.5469H8.34369L7.43666 19.1179Z" fill="white"/>
<path d="M5.22657 16.609C4.5804 16.609 4.05469 16.0833 4.05469 15.4372C4.05469 14.791 4.5804 14.2653 5.22657 14.2653H7.53179L10.6937 8.7887L9.83677 7.30445C9.51371 6.74485 9.70608 6.02673 10.2657 5.70362C10.8253 5.38056 11.5435 5.57303 11.8665 6.13257L12.0469 6.44499L12.2273 6.13262C12.5505 5.57298 13.2686 5.3806 13.8281 5.70367C14.0991 5.86018 14.2931 6.11288 14.3741 6.41523C14.4551 6.71757 14.4135 7.03342 14.257 7.30449L10.2381 14.2653H12.7731L14.1263 16.609H5.22657Z" fill="white"/>
<path d="M18.8672 16.6094H17.9151L18.6868 17.9461C19.0099 18.5056 18.8175 19.2238 18.258 19.5469C18.0773 19.6511 17.8769 19.7044 17.6738 19.7044C17.572 19.7044 17.4697 19.691 17.3686 19.664C17.0663 19.5829 16.8136 19.389 16.657 19.1179L12.5881 12.0703L13.9412 9.72656L16.562 14.2657H18.8672C19.5134 14.2657 20.0391 14.7914 20.0391 15.4376C20.0391 16.0837 19.5134 16.6094 18.8672 16.6094Z" fill="#F2F2F2"/>
<path d="M12.0469 14.2656V16.6094H14.1263L12.7731 14.2656H12.0469Z" fill="#F2F2F2"/>
<path d="M14.3741 6.4157C14.293 6.11336 14.0991 5.86061 13.8281 5.70414C13.2686 5.38108 12.5504 5.5734 12.2273 6.13309L12.0469 6.44547V11.133L14.257 7.30496C14.4135 7.03389 14.4551 6.71809 14.3741 6.4157Z" fill="#F2F2F2"/>
</g>
<defs>
<clipPath id="clip0_1_1738">
<rect width="24" height="24" fill="white" transform="translate(0.046875 0.625)"/>
</clipPath>
</defs>
</svg>
