<svg width="105" height="51" viewBox="0 0 105 51" fill="none" xmlns="http://www.w3.org/2000/svg">
<path d="M30.3718 4.45517L39.9114 9.96286C43.3148 11.9278 45.4114 15.5592 45.4114 19.4891V30.5045C45.4114 34.4344 43.3148 38.0658 39.9114 40.0308L30.3718 45.5385C26.9684 47.5034 22.7752 47.5034 19.3718 45.5385L9.83222 40.0308C6.4288 38.0658 4.33221 34.4344 4.33221 30.5045V19.4891C4.33221 15.5592 6.4288 11.9278 9.83221 9.96286L19.3718 4.45517C22.7752 2.49021 26.9684 2.49021 30.3718 4.45517Z" stroke="white" stroke-width="2"/>
<path d="M32.0397 23.8494C31.9049 23.8669 31.7668 23.8774 31.6217 23.8774C30.7235 23.8774 29.9221 23.4786 29.3729 22.8631C28.8236 23.4786 28.0222 23.8774 27.1206 23.8774C26.219 23.8774 25.4176 23.4786 24.8683 22.8631C24.319 23.4786 23.5211 23.8774 22.616 23.8774C21.7179 23.8774 20.9165 23.4786 20.3672 22.8631C19.8179 23.4786 19.0165 23.8774 18.1135 23.8774C17.9733 23.8774 17.832 23.8669 17.6949 23.8494C15.7839 23.5906 14.8797 21.3101 15.9017 19.6733L17.8821 16.502C18.0583 16.2169 18.373 16.0427 18.7091 16.0427H31.0344C31.3695 16.0427 31.6839 16.2169 31.86 16.502L33.8394 19.6733C34.8654 21.3136 33.9569 23.5906 32.0397 23.8494ZM32.1848 24.9581C32.3022 24.9406 32.4715 24.9127 32.6096 24.8777V31.712C32.6096 32.9466 31.6182 33.9504 30.3988 33.9504H19.3447C18.1239 33.9504 17.1339 32.9466 17.1339 31.712V24.8777C17.2676 24.9127 17.4054 24.9406 17.5474 24.9581H17.5515C17.7332 24.9826 17.9225 24.9966 18.1135 24.9966C18.5433 24.9966 18.9578 24.9301 19.3447 24.8077V29.4735H30.3988V24.8112C30.7857 24.9301 31.1968 24.9966 31.6217 24.9966C31.8151 24.9966 32.0017 24.9826 32.1848 24.9581Z" fill="white"/>
<path d="M91.5 12.125H51.5C44.5964 12.125 39 17.7214 39 24.625C39 31.5286 44.5964 37.125 51.5 37.125H91.5C98.4036 37.125 104 31.5286 104 24.625C104 17.7214 98.4036 12.125 91.5 12.125Z" fill="white" stroke="white" stroke-width="2"/>
<path d="M90.5333 18.0327H43.7743V31.2811H90.5333V18.0327Z" fill="white"/>
<path d="M71.8919 21.4275C72.0233 21.4275 72.1546 21.457 72.2859 21.5161C72.4238 21.5687 72.542 21.6409 72.6405 21.7328C72.7521 21.8379 72.8342 21.956 72.8867 22.0874C72.9392 22.2187 72.9655 22.3533 72.9655 22.4912C72.972 22.629 72.9491 22.7636 72.8965 22.895C72.844 23.0263 72.7685 23.1412 72.67 23.2397L67.4994 28.4497H72.0889C72.2399 28.4497 72.3811 28.4792 72.5124 28.5383C72.6437 28.5974 72.7554 28.6762 72.8473 28.7747C72.9458 28.8732 73.0213 28.9881 73.0738 29.1194C73.1329 29.2442 73.1624 29.3788 73.1624 29.5232C73.1624 29.6677 73.1329 29.8055 73.0738 29.9369C73.0213 30.0682 72.9458 30.1831 72.8473 30.2816C72.7554 30.3735 72.6437 30.449 72.5124 30.5081C72.3811 30.5606 72.2399 30.5869 72.0889 30.5869H65.0963C64.9124 30.5869 64.745 30.5475 64.594 30.4687C64.443 30.3833 64.3215 30.2717 64.2296 30.1338C64.0589 29.904 63.9834 29.6512 64.0031 29.3755C64.0228 29.1522 64.1147 28.9585 64.2788 28.7944L69.4396 23.5647H65.1751C65.0306 23.5647 64.8927 23.5351 64.7614 23.476C64.6301 23.4169 64.5185 23.3382 64.4266 23.2397C64.3346 23.1412 64.2591 23.0263 64.2 22.895C64.1475 22.7571 64.1212 22.6159 64.1212 22.4715C64.1212 22.327 64.1475 22.1924 64.2 22.0677C64.2591 21.9363 64.3346 21.8247 64.4266 21.7328C64.5185 21.6409 64.6301 21.5687 64.7614 21.5161C64.8927 21.457 65.0306 21.4275 65.1751 21.4275H71.8919Z" fill="#373F50"/>
<path d="M96.1372 29.5331C96.1372 29.6775 96.1109 29.8154 96.0584 29.9467C96.0059 30.078 95.9304 30.1896 95.8319 30.2816C95.74 30.3735 95.6316 30.449 95.5069 30.5081C95.3821 30.5606 95.2475 30.5869 95.1031 30.5869C94.9521 30.5869 94.8076 30.5606 94.6697 30.5081C94.5384 30.449 94.4235 30.3735 94.325 30.2816C94.2265 30.1896 94.1477 30.078 94.0886 29.9467C94.0295 29.8154 94 29.6775 94 29.5331V26.3519C94 25.6756 94.128 25.0387 94.3841 24.4412C94.6467 23.8437 95.0013 23.3217 95.4478 22.8753C95.8943 22.4288 96.4162 22.0775 97.0137 21.8214C97.6112 21.5588 98.2448 21.4275 98.9146 21.4275H98.9343C99.2888 21.4275 99.5613 21.5293 99.7517 21.7328C99.9487 21.9298 100.047 22.1826 100.047 22.4912C100.047 22.6422 100.018 22.7833 99.9585 22.9147C99.8994 23.046 99.8174 23.1609 99.7123 23.2594C99.6138 23.3513 99.4956 23.4268 99.3577 23.4859C99.2264 23.5384 99.0853 23.5647 98.9343 23.5647H98.9146C98.5403 23.5647 98.1825 23.6369 97.841 23.7814C97.5062 23.9258 97.214 24.1228 96.9645 24.3723C96.715 24.6218 96.5147 24.914 96.3637 25.2488C96.2127 25.5837 96.1372 25.9415 96.1372 26.3223V29.5331Z" fill="#373F50"/>
<path d="M54.0082 26.1254C54.0082 25.4753 54.1329 24.868 54.3824 24.3033C54.6319 23.7321 54.9701 23.2331 55.3969 22.8063C55.8236 22.3795 56.3194 22.0447 56.884 21.8017C57.4553 21.5522 58.0626 21.4275 58.7061 21.4275C59.3561 21.4275 59.9667 21.5522 60.5379 21.8017C61.1092 22.0447 61.6049 22.3795 62.0251 22.8063C62.4519 23.2331 62.7867 23.7321 63.0297 24.3033C63.2726 24.868 63.3941 25.4753 63.3941 26.1254V29.6118C63.3941 29.7629 63.3645 29.904 63.3055 30.0353C63.2529 30.1667 63.1774 30.2816 63.0789 30.3801C62.9804 30.4785 62.8623 30.5573 62.7244 30.6164C62.5931 30.6755 62.4519 30.7051 62.3009 30.7051C62.0448 30.7051 61.8281 30.6296 61.6509 30.4785C61.4736 30.3275 61.3554 30.1371 61.2963 29.9073C60.922 30.1896 60.515 30.4129 60.075 30.577C59.6417 30.7412 59.1854 30.8233 58.7061 30.8233C58.0626 30.8233 57.4553 30.7018 56.884 30.4588C56.3194 30.2093 55.8236 29.8712 55.3969 29.4444C54.9701 29.0176 54.6319 28.5186 54.3824 27.9474C54.1329 27.3762 54.0082 26.7688 54.0082 26.1254ZM56.1454 26.1254C56.1454 26.4734 56.211 26.8049 56.3423 27.1201C56.4802 27.4287 56.6641 27.7012 56.8939 27.9376C57.1303 28.1674 57.4027 28.3512 57.7113 28.4891C58.0199 28.6204 58.3515 28.6861 58.7061 28.6861C59.0606 28.6861 59.3922 28.6204 59.7008 28.4891C60.016 28.3512 60.2884 28.1674 60.5182 27.9376C60.748 27.7012 60.9286 27.4287 61.0599 27.1201C61.1912 26.8049 61.2569 26.4734 61.2569 26.1254C61.2569 25.7708 61.1912 25.4392 61.0599 25.1306C60.9286 24.8155 60.748 24.543 60.5182 24.3132C60.2884 24.0834 60.016 23.9028 59.7008 23.7715C59.3922 23.6336 59.0606 23.5647 58.7061 23.5647C58.3581 23.5647 58.0265 23.6336 57.7113 23.7715C57.4027 23.9028 57.1303 24.0834 56.8939 24.3132C56.6641 24.543 56.4802 24.8155 56.3423 25.1306C56.211 25.4392 56.1454 25.7708 56.1454 26.1254Z" fill="#373F50"/>
<path d="M84 26.1254C84 25.4753 84.1248 24.868 84.3743 24.3033C84.6238 23.7321 84.9619 23.2331 85.3887 22.8063C85.8155 22.3795 86.3112 22.0447 86.8759 21.8017C87.4471 21.5522 88.0544 21.4275 88.6979 21.4275C89.3479 21.4275 89.9585 21.5522 90.5298 21.8017C91.101 22.0447 91.5967 22.3795 92.0169 22.8063C92.4437 23.2331 92.7786 23.7321 93.0215 24.3033C93.2644 24.868 93.3859 25.4753 93.3859 26.1254V29.6118C93.3859 29.7629 93.3564 29.904 93.2973 30.0353C93.2447 30.1667 93.1692 30.2816 93.0708 30.3801C92.9723 30.4785 92.8541 30.5573 92.7162 30.6164C92.5849 30.6755 92.4437 30.7051 92.2927 30.7051C92.0366 30.7051 91.82 30.6296 91.6427 30.4785C91.4654 30.3275 91.3472 30.1371 91.2881 29.9073C90.9139 30.1896 90.5068 30.4129 90.0669 30.577C89.6335 30.7412 89.1772 30.8233 88.6979 30.8233C88.0544 30.8233 87.4471 30.7018 86.8759 30.4588C86.3112 30.2093 85.8155 29.8712 85.3887 29.4444C84.9619 29.0176 84.6238 28.5186 84.3743 27.9474C84.1248 27.3762 84 26.7688 84 26.1254ZM86.1372 26.1254C86.1372 26.4734 86.2029 26.8049 86.3342 27.1201C86.4721 27.4287 86.6559 27.7012 86.8857 27.9376C87.1221 28.1674 87.3946 28.3512 87.7032 28.4891C88.0117 28.6204 88.3433 28.6861 88.6979 28.6861C89.0524 28.6861 89.384 28.6204 89.6926 28.4891C90.0078 28.3512 90.2803 28.1674 90.5101 27.9376C90.7399 27.7012 90.9204 27.4287 91.0517 27.1201C91.1831 26.8049 91.2487 26.4734 91.2487 26.1254C91.2487 25.7708 91.1831 25.4392 91.0517 25.1306C90.9204 24.8155 90.7399 24.543 90.5101 24.3132C90.2803 24.0834 90.0078 23.9028 89.6926 23.7715C89.384 23.6336 89.0524 23.5647 88.6979 23.5647C88.3499 23.5647 88.0183 23.6336 87.7032 23.7715C87.3946 23.9028 87.1221 24.0834 86.8857 24.3132C86.6559 24.543 86.4721 24.8155 86.3342 25.1306C86.2029 25.4392 86.1372 25.7708 86.1372 26.1254Z" fill="#373F50"/>
<path d="M74 26.1254C74 25.4753 74.1248 24.868 74.3743 24.3033C74.6238 23.7321 74.9619 23.2331 75.3887 22.8063C75.8155 22.3795 76.3112 22.0447 76.8759 21.8017C77.4471 21.5522 78.0544 21.4275 78.6979 21.4275C79.3479 21.4275 79.9585 21.5522 80.5298 21.8017C81.101 22.0447 81.5967 22.3795 82.0169 22.8063C82.4437 23.2331 82.7786 23.7321 83.0215 24.3033C83.2644 24.868 83.3859 25.4753 83.3859 26.1254V29.6118C83.3859 29.7629 83.3564 29.904 83.2973 30.0353C83.2447 30.1667 83.1692 30.2816 83.0708 30.3801C82.9723 30.4785 82.8541 30.5573 82.7162 30.6164C82.5849 30.6755 82.4437 30.7051 82.2927 30.7051C82.0366 30.7051 81.82 30.6296 81.6427 30.4785C81.4654 30.3275 81.3472 30.1371 81.2881 29.9073C80.9139 30.1896 80.5068 30.4129 80.0669 30.577C79.6335 30.7412 79.1772 30.8233 78.6979 30.8233C78.0544 30.8233 77.4471 30.7018 76.8759 30.4588C76.3112 30.2093 75.8155 29.8712 75.3887 29.4444C74.9619 29.0176 74.6238 28.5186 74.3743 27.9474C74.1248 27.3762 74 26.7688 74 26.1254ZM76.1372 26.1254C76.1372 26.4734 76.2029 26.8049 76.3342 27.1201C76.4721 27.4287 76.6559 27.7012 76.8857 27.9376C77.1221 28.1674 77.3946 28.3512 77.7032 28.4891C78.0117 28.6204 78.3433 28.6861 78.6979 28.6861C79.0524 28.6861 79.384 28.6204 79.6926 28.4891C80.0078 28.3512 80.2803 28.1674 80.5101 27.9376C80.7399 27.7012 80.9204 27.4287 81.0517 27.1201C81.1831 26.8049 81.2487 26.4734 81.2487 26.1254C81.2487 25.7708 81.1831 25.4392 81.0517 25.1306C80.9204 24.8155 80.7399 24.543 80.5101 24.3132C80.2803 24.0834 80.0078 23.9028 79.6926 23.7715C79.384 23.6336 79.0524 23.5647 78.6979 23.5647C78.3499 23.5647 78.0183 23.6336 77.7032 23.7715C77.3946 23.9028 77.1221 24.0834 76.8857 24.3132C76.6559 24.543 76.4721 24.8155 76.3342 25.1306C76.2029 25.4392 76.1372 25.7708 76.1372 26.1254Z" fill="#373F50"/>
<mask id="mask0_1_1697" style="mask-type:alpha" maskUnits="userSpaceOnUse" x="43" y="18" width="11" height="13">
<path d="M43.7743 19.1456C43.7743 18.988 43.8006 18.8436 43.8531 18.7123C43.9122 18.5744 43.9877 18.4562 44.0796 18.3577C44.1781 18.2526 44.293 18.1739 44.4243 18.1213C44.5556 18.0622 44.6968 18.0327 44.8478 18.0327C45.0054 18.0327 45.1466 18.0622 45.2713 18.1213C45.4026 18.1739 45.5142 18.2526 45.6062 18.3577C45.7047 18.4562 45.7802 18.5744 45.8327 18.7123C45.8852 18.8436 45.9115 18.988 45.9115 19.1456V22.2184C46.2857 21.9755 46.6863 21.7884 47.113 21.6571C47.5464 21.5192 47.9994 21.4502 48.4722 21.4502C49.1222 21.4502 49.7295 21.575 50.2942 21.8245C50.8654 22.0674 51.3612 22.4023 51.7814 22.8291C52.2082 23.2493 52.543 23.745 52.7859 24.3162C53.0355 24.8875 53.1602 25.4981 53.1602 26.1481C53.1602 26.7916 53.0355 27.3989 52.7859 27.9701C52.543 28.5414 52.2082 29.0404 51.7814 29.4672C51.3612 29.8939 50.8654 30.2321 50.2942 30.4816C49.7295 30.7245 49.1222 30.846 48.4722 30.846C47.8287 30.846 47.2214 30.7245 46.6501 30.4816C46.0789 30.2321 45.5799 29.8939 45.1531 29.4672C44.7263 29.0404 44.3882 28.5414 44.1387 27.9701C43.8958 27.3989 43.7743 26.7916 43.7743 26.1481V19.1456ZM45.9115 26.1481C45.9115 26.4961 45.9771 26.8277 46.1085 27.1428C46.2463 27.4514 46.4302 27.7239 46.66 27.9603C46.8964 28.1901 47.1688 28.3739 47.4774 28.5118C47.786 28.6431 48.1176 28.7088 48.4722 28.7088C48.8267 28.7088 49.1583 28.6431 49.4669 28.5118C49.7755 28.3739 50.0447 28.1901 50.2745 27.9603C50.5109 27.7239 50.6947 27.4514 50.826 27.1428C50.9574 26.8277 51.023 26.4961 51.023 26.1481C51.023 25.7936 50.9574 25.462 50.826 25.1534C50.6947 24.8382 50.5109 24.5657 50.2745 24.3359C50.0447 24.1061 49.7755 23.9256 49.4669 23.7942C49.1583 23.6564 48.8267 23.5874 48.4722 23.5874C48.1176 23.5874 47.786 23.6564 47.4774 23.7942C47.1688 23.9256 46.8964 24.1061 46.66 24.3359C46.4302 24.5657 46.2463 24.8382 46.1085 25.1534C45.9771 25.462 45.9115 25.7936 45.9115 26.1481Z" fill="black"/>
</mask>
<g mask="url(#mask0_1_1697)">
<path d="M53.6108 20.9053H43.2521V31.351H53.6108V20.9053Z" fill="#373F50"/>
<path d="M44.5536 25.9769C44.5536 23.7414 46.3658 21.9292 48.6013 21.9292H53.7806V30.0246H48.6013C46.3658 30.0246 44.5536 28.2124 44.5536 25.9769Z" fill="#373F50"/>
<path d="M48.4313 28.5655C49.8014 28.5655 50.9121 27.4547 50.9121 26.0846C50.9121 24.7145 49.8014 23.6038 48.4313 23.6038C47.0612 23.6038 45.9504 24.7145 45.9504 26.0846C45.9504 27.4547 47.0612 28.5655 48.4313 28.5655Z" fill="#373F50"/>
<path d="M43.2961 20.9052L53.5677 10.6335V20.9052H43.2961Z" fill="#373F50"/>
<path d="M53.6106 10.6335L43.339 20.9052V10.6335H53.6106Z" fill="#373F50"/>
<path d="M49.7596 25.8259L39.488 36.0975V25.8259H49.7596Z" fill="#373F50"/>
<path d="M48.4313 27.0856C48.9842 27.0856 49.4323 26.6374 49.4323 26.0845C49.4323 25.5317 48.9842 25.0835 48.4313 25.0835C47.8784 25.0835 47.4302 25.5317 47.4302 26.0845C47.4302 26.6374 47.8784 27.0856 48.4313 27.0856Z" fill="#373F50"/>
<path d="M48.3878 23.6038C48.7136 23.6038 49.0362 23.668 49.3372 23.7926C49.6382 23.9173 49.9117 24.1001 50.142 24.3304C50.3724 24.5608 50.5552 24.8343 50.6798 25.1353C50.8045 25.4363 50.8687 25.7589 50.8687 26.0847C50.8687 26.4104 50.8045 26.733 50.6798 27.034C50.5552 27.335 50.3724 27.6085 50.142 27.8389C49.9117 28.0693 49.6382 28.252 49.3372 28.3767C49.0362 28.5013 48.7136 28.5655 48.3878 28.5655V26.0847V23.6038Z" fill="#373F50"/>
</g>
</svg>
