<svg width="24" height="25" viewBox="0 0 24 25" fill="none" xmlns="http://www.w3.org/2000/svg">
<g clip-path="url(#clip0_1_1723)">
<path d="M17.9236 8.85727C15.1356 7.29787 10.6607 4.79385 3.71978 0.907486C3.25183 0.598439 2.71342 0.557939 2.24823 0.715392L14.1569 12.624L17.9236 8.85727Z" fill="#32BBFF"/>
<path d="M2.24824 0.715332C2.16105 0.744863 2.07621 0.780488 1.99507 0.82352C1.48137 1.1014 1.10388 1.6361 1.10388 2.31237V22.9355C1.10388 23.6118 1.48132 24.1465 1.99507 24.4243C2.07607 24.4673 2.16087 24.5031 2.24796 24.5328L14.1568 12.624L2.24824 0.715332Z" fill="#32BBFF"/>
<path d="M14.1569 12.624L2.24799 24.5329C2.71331 24.6915 3.25172 24.6541 3.71982 24.3405C10.451 20.5713 14.8754 18.097 17.6957 16.5243C17.7742 16.4802 17.8512 16.4371 17.9272 16.3944L14.1569 12.624Z" fill="#32BBFF"/>
<path d="M1.10388 12.624V22.9356C1.10388 23.6119 1.48132 24.1466 1.99507 24.4244C2.07607 24.4674 2.16087 24.5032 2.24796 24.5329L14.1568 12.624H1.10388Z" fill="#2C9FD9"/>
<path d="M3.71978 0.907559C3.16407 0.540621 2.50876 0.551074 1.99506 0.823699L13.9761 12.8048L17.9235 8.85734C15.1356 7.29795 10.6607 4.79393 3.71978 0.907559Z" fill="#29CC5E"/>
<path d="M13.9762 12.4434L1.99506 24.4244C2.50881 24.697 3.16407 24.7127 3.71978 24.3405C10.4509 20.5713 14.8754 18.097 17.6957 16.5243C17.7742 16.4802 17.8511 16.4371 17.9271 16.3944L13.9762 12.4434Z" fill="#D93F21"/>
<path d="M22.8961 12.6239C22.8961 12.0525 22.6078 11.4759 22.0363 11.1561C22.0363 11.1561 20.9676 10.5598 17.6919 8.72754L13.7955 12.6239L17.6957 16.5242C20.9355 14.7051 22.0363 14.0917 22.0363 14.0917C22.6078 13.772 22.8961 13.1953 22.8961 12.6239Z" fill="#FFD500"/>
<path d="M22.0363 14.0919C22.6078 13.7721 22.8961 13.1954 22.8961 12.624H13.7955L17.6957 16.5243C20.9355 14.7052 22.0363 14.0919 22.0363 14.0919Z" fill="#FFAA00"/>
</g>
<defs>
<clipPath id="clip0_1_1723">
<rect width="24" height="24" fill="white" transform="translate(0 0.625)"/>
</clipPath>
</defs>
</svg>
