<svg width="71" height="15" viewBox="0 0 71 15" fill="none" xmlns="http://www.w3.org/2000/svg">
<g clip-path="url(#clip0_1_303)">
<path d="M7.90627 10.5898L11.5113 12.7656L10.5546 8.66481L13.7396 5.90564L9.54544 5.54981L7.90627 1.68231L6.2671 5.54981L2.07294 5.90564L5.25794 8.66481L4.30127 12.7656L7.90627 10.5898Z" fill="#FAAF00"/>
</g>
<g clip-path="url(#clip1_1_303)">
<path d="M21.9063 10.5898L25.5113 12.7656L24.5546 8.66481L27.7396 5.90564L23.5454 5.54981L21.9063 1.68231L20.2671 5.54981L16.0729 5.90564L19.2579 8.66481L18.3013 12.7656L21.9063 10.5898Z" fill="#FAAF00"/>
</g>
<g clip-path="url(#clip2_1_303)">
<path d="M35.9063 10.5898L39.5113 12.7656L38.5546 8.66481L41.7396 5.90564L37.5454 5.54981L35.9063 1.68231L34.2671 5.54981L30.0729 5.90564L33.2579 8.66481L32.3013 12.7656L35.9063 10.5898Z" fill="#FAAF00"/>
</g>
<g clip-path="url(#clip3_1_303)">
<path d="M49.9062 10.5898L53.5112 12.7656L52.5546 8.66481L55.7396 5.90564L51.5454 5.54981L49.9062 1.68231L48.2671 5.54981L44.0729 5.90564L47.2579 8.66481L46.3012 12.7656L49.9062 10.5898Z" fill="#FAAF00"/>
</g>
<g clip-path="url(#clip4_1_303)">
<path d="M69.7396 5.90564L65.5454 5.54398L63.9062 1.68231L62.2671 5.54981L58.0729 5.90564L61.2579 8.66481L60.3012 12.7656L63.9062 10.5898L67.5112 12.7656L66.5604 8.66481L69.7396 5.90564ZM63.9062 9.49898L61.7129 10.8231L62.2962 8.32648L60.3596 6.64648L62.9146 6.42481L63.9062 4.07398L64.9037 6.43065L67.4587 6.65231L65.5221 8.33231L66.1054 10.829L63.9062 9.49898Z" fill="black" fill-opacity="0.26"/>
</g>
<defs>
<clipPath id="clip0_1_303">
<rect width="14" height="14" fill="white" transform="translate(0.90625 0.515625)"/>
</clipPath>
<clipPath id="clip1_1_303">
<rect width="14" height="14" fill="white" transform="translate(14.9062 0.515625)"/>
</clipPath>
<clipPath id="clip2_1_303">
<rect width="14" height="14" fill="white" transform="translate(28.9062 0.515625)"/>
</clipPath>
<clipPath id="clip3_1_303">
<rect width="14" height="14" fill="white" transform="translate(42.9062 0.515625)"/>
</clipPath>
<clipPath id="clip4_1_303">
<rect width="14" height="14" fill="white" transform="translate(56.9062 0.515625)"/>
</clipPath>
</defs>
</svg>
