<svg width="41" height="41" viewBox="0 0 41 41" fill="none" xmlns="http://www.w3.org/2000/svg">
<g clip-path="url(#clip0_1_175)">
<path d="M31.007 24.2814C28.2267 24.2814 25.965 26.5432 25.965 29.3234C25.965 32.1036 28.2267 34.3654 31.007 34.3654C33.7877 34.3654 36.049 32.1036 36.049 29.3234C36.049 26.5432 33.7872 24.2814 31.007 24.2814ZM31.007 31.8444C29.6167 31.8444 28.486 30.7137 28.486 29.3234C28.486 27.9331 29.6167 26.8024 31.007 26.8024C32.3973 26.8024 33.528 27.9331 33.528 29.3234C33.528 30.7138 32.3973 31.8444 31.007 31.8444Z" fill="#2B3445"/>
<path d="M13.78 24.2814C10.9998 24.2814 8.73804 26.5432 8.73804 29.3234C8.73804 32.1036 10.9998 34.3654 13.78 34.3654C16.5603 34.3654 18.8221 32.1036 18.8221 29.3234C18.8221 26.5432 16.5603 24.2814 13.78 24.2814ZM13.78 31.8444C12.3897 31.8444 11.259 30.7137 11.259 29.3234C11.259 27.9331 12.3897 26.8024 13.78 26.8024C15.17 26.8024 16.301 27.9331 16.301 29.3234C16.301 30.7138 15.1703 31.8444 13.78 31.8444Z" fill="#2B3445"/>
<path d="M34.4023 9.84976C34.1881 9.42414 33.7523 9.15564 33.2759 9.15564H26.6372V11.6766H32.4985L35.9309 18.5036L38.1838 17.3708L34.4023 9.84976Z" fill="#2B3445"/>
<path d="M27.2255 28.105H17.6877V30.626H27.2255V28.105Z" fill="#2B3445"/>
<path d="M9.99858 28.105H5.62888C4.93263 28.105 4.36841 28.6692 4.36841 29.3654C4.36841 30.0617 4.9327 30.6259 5.62888 30.6259H9.99865C10.6949 30.6259 11.2591 30.0616 11.2591 29.3654C11.2591 28.6692 10.6948 28.105 9.99858 28.105Z" fill="#2B3445"/>
<path d="M40.5322 20.3989L38.0528 17.2057C37.8146 16.8981 37.447 16.7183 37.0575 16.7183H27.8978V7.89475C27.8978 7.1985 27.3335 6.63428 26.6373 6.63428H5.62888C4.93263 6.63428 4.36841 7.19856 4.36841 7.89475C4.36841 8.59094 4.9327 9.15519 5.62888 9.15519H25.3768V17.9788C25.3768 18.675 25.9411 19.2392 26.6372 19.2392H36.4402L38.2759 21.6039V28.1048H34.7885C34.0922 28.1048 33.528 28.6691 33.528 29.3652C33.528 30.0614 34.0923 30.6257 34.7885 30.6257H39.5364C40.2326 30.6257 40.7968 30.0614 40.7969 29.3652V21.1721C40.7969 20.8923 40.7036 20.62 40.5322 20.3989Z" fill="#2B3445"/>
<path d="M9.91457 21.7185H4.11618C3.41993 21.7185 2.85571 22.2828 2.85571 22.979C2.85571 23.6753 3.42001 24.2394 4.11618 24.2394H9.91444C10.6107 24.2394 11.1749 23.6751 11.1749 22.979C11.175 22.2828 10.6107 21.7185 9.91457 21.7185Z" fill="#2B3445"/>
<path d="M12.8137 16.7603H2.05734C1.36117 16.7603 0.796875 17.3246 0.796875 18.0208C0.796875 18.7171 1.36117 19.2813 2.05734 19.2813H12.8137C13.5099 19.2813 14.0741 18.717 14.0741 18.0208C14.0741 17.3246 13.5099 16.7603 12.8137 16.7603Z" fill="#2B3445"/>
<path d="M14.8725 11.8025H4.11618C3.41993 11.8025 2.85571 12.3668 2.85571 13.0629C2.85571 13.7592 3.42001 14.3234 4.11618 14.3234H14.8725C15.5688 14.3234 16.133 13.7591 16.133 13.0629C16.1331 12.3668 15.5688 11.8025 14.8725 11.8025Z" fill="#2B3445"/>
</g>
<defs>
<clipPath id="clip0_1_175">
<rect width="40" height="40" fill="white" transform="translate(0.796875 0.5)"/>
</clipPath>
</defs>
</svg>
