<svg width="41" height="41" viewBox="0 0 41 41" fill="none" xmlns="http://www.w3.org/2000/svg">
<g clip-path="url(#clip0_1_226)">
<path d="M39.8473 14.7476L35.515 3.48357C34.6941 1.35422 32.3024 0.293584 30.173 1.11453C30.1421 1.12647 30.1113 1.13874 30.0806 1.15141L8.43065 10.1259C6.36917 10.9716 5.35598 13.305 6.14569 15.3886L6.74098 16.9776H5.37543C3.14786 16.9801 1.34262 18.7853 1.34012 21.0128V35.54C1.34262 37.7675 3.14786 39.5728 5.37543 39.5753H32.8156C35.0431 39.5728 36.8484 37.7675 36.8508 35.54V21.0128C36.8496 20.7939 36.8301 20.5752 36.7928 20.3594L37.5424 20.056C39.6223 19.2035 40.6445 16.8493 39.8473 14.7476ZM5.37543 18.2689H32.8156C34.2647 18.2731 35.4601 19.4048 35.5434 20.8515H2.64756C2.73084 19.4047 3.92627 18.273 5.37543 18.2689ZM11.8649 14.3795L16.1804 12.2211L17.0675 14.4403L12.7519 16.598L11.8649 14.3795ZM35.5596 35.5401C35.5578 37.0549 34.3304 38.2823 32.8156 38.2841H5.37543C3.86066 38.2823 2.6332 37.0549 2.63142 35.5401V27.308H35.5596V35.5401ZM35.5596 26.0167H2.63142V22.1429H35.5596V26.0167ZM37.0581 18.863L36.3834 19.1361C35.6865 17.8105 34.3131 16.9797 32.8156 16.9777H14.8807L18.1768 15.3293C18.4772 15.1792 18.6126 14.8238 18.4879 14.5119L17.1185 11.0899C16.9861 10.7589 16.6104 10.5979 16.2793 10.7302C16.2626 10.7369 16.2463 10.7443 16.2302 10.7523L10.7557 13.4912C10.4554 13.6414 10.3204 13.9967 10.4452 14.3085L11.513 16.9777H8.11944L7.35499 14.9387C6.81305 13.5072 7.50914 11.9043 8.92522 11.3231L30.5745 2.34852C32.0218 1.74839 33.6816 2.43513 34.2818 3.88243C34.2912 3.90494 34.3002 3.92762 34.309 3.95038L38.6412 15.2144C39.1893 16.6586 38.4873 18.2766 37.0581 18.863Z" fill="#2B3445"/>
<path d="M24.5652 36.4684C25.7684 37.1674 27.2542 37.1674 28.4573 36.4684C30.3073 37.5432 32.6782 36.9147 33.753 35.0648C34.8277 33.2148 34.1993 30.8439 32.3493 29.7691C31.7556 29.4241 31.0809 29.2432 30.3942 29.2448C29.7136 29.2451 29.0451 29.426 28.4573 29.7691C26.6074 28.6943 24.2364 29.3227 23.1616 31.1726C22.0868 33.0227 22.7153 35.3935 24.5652 36.4684ZM29.5369 30.6937C29.8115 30.5925 30.1015 30.5392 30.3942 30.5361C31.8206 30.5361 32.9769 31.6924 32.9769 33.1187C32.9769 34.5451 31.8206 35.7014 30.3942 35.7014C30.1015 35.6983 29.8115 35.6451 29.5369 35.5439C30.6799 34.1292 30.6799 32.1083 29.5369 30.6937ZM28.4573 31.4284C29.3182 32.3909 29.3182 33.8466 28.4573 34.8091C27.5964 33.8466 27.5964 32.3908 28.4573 31.4284ZM26.5204 30.5361C26.813 30.5391 27.1032 30.5925 27.3778 30.6937C26.2346 32.1083 26.2346 34.1293 27.3778 35.5439C27.1032 35.6451 26.813 35.6983 26.5204 35.7014C25.0941 35.7014 23.9378 34.5451 23.9378 33.1187C23.9378 31.6923 25.0941 30.5361 26.5204 30.5361Z" fill="#2B3445"/>
<path d="M28.5751 14.1613L29.0997 15.3412L35.2592 12.6032L34.7346 11.4232L28.5751 14.1613Z" fill="#2B3445"/>
<path d="M33.36 8.68982L24.4631 12.7963L25.004 13.9682L33.9009 9.86171L33.36 8.68982Z" fill="#2B3445"/>
</g>
<defs>
<clipPath id="clip0_1_226">
<rect width="40" height="40" fill="white" transform="translate(0.875 0.5)"/>
</clipPath>
</defs>
</svg>
