<svg width="41" height="41" viewBox="0 0 41 41" fill="none" xmlns="http://www.w3.org/2000/svg">
<g clip-path="url(#clip0_1_192)">
<path d="M35.1208 15.0683C34.5521 14.5291 33.7848 14.2795 33.0147 14.3844C32.8805 14.4027 32.7408 14.4237 32.5969 14.4472C30.0929 11.3612 26.4456 9.46167 22.5365 9.22092C22.379 9.21124 22.2269 9.26817 22.1129 9.37785C21.9989 9.48761 21.9343 9.64067 21.9343 9.80079V12.443C21.9343 12.7291 21.707 12.9619 21.4276 12.9619H19.8114C19.532 12.9619 19.3047 12.7291 19.3047 12.443V10.758C20.0072 9.732 20.4211 8.4849 20.4211 7.14005C20.4211 3.65351 17.6473 0.817017 14.2378 0.817017C10.8287 0.817017 8.05527 3.65351 8.05527 7.14005C8.05527 7.45639 8.07807 7.77118 8.12298 8.07568C8.1697 8.39295 8.45873 8.61108 8.76941 8.56345C9.07963 8.51558 9.29314 8.2196 9.24633 7.90233C9.2099 7.65507 9.19134 7.39861 9.19134 7.14005C9.19134 4.29418 11.4551 1.97891 14.2378 1.97891C17.0208 1.97891 19.285 4.29418 19.285 7.14005C19.285 9.98639 17.0208 12.3019 14.2378 12.3019C12.4677 12.3019 10.8579 11.3791 9.93169 9.83337C9.76771 9.55988 9.4181 9.4739 9.1506 9.6416C8.88316 9.80918 8.79917 10.167 8.96307 10.4404C9.42689 11.2144 10.0307 11.8607 10.7308 12.3546C9.96758 12.9764 9.2689 13.6772 8.64398 14.4474C8.4994 14.4238 8.35905 14.4027 8.22432 14.3843C7.45451 14.2797 6.68676 14.529 6.11819 15.0682C5.54886 15.608 5.24765 16.3732 5.29166 17.1674C5.35899 18.3815 5.5247 19.477 5.73692 20.4415C5.49138 21.5317 5.36823 22.6537 5.37338 23.7793C5.3786 24.9966 5.40526 26.2392 5.4526 27.4729C5.55235 30.052 6.59291 32.4781 8.38261 34.3043C8.70488 34.6332 9.04646 34.9368 9.40424 35.2149V38.2096C9.40424 39.4593 10.398 40.4761 11.6196 40.4761H15.6246C16.5324 40.4761 17.3385 39.9202 17.6779 39.0606L18.3426 37.3828C19.101 37.3952 19.86 37.403 20.6195 37.403C21.3787 37.403 22.1379 37.3952 22.8964 37.3828L23.5609 39.0601C23.9005 39.9203 24.7066 40.4761 25.6144 40.4761H29.6194C30.841 40.4761 31.8347 39.4594 31.8347 38.2097V35.2177C32.3218 34.838 32.779 34.4101 33.2 33.9356C33.4107 33.698 33.3933 33.3306 33.1609 33.115C32.9285 32.8993 32.5692 32.9172 32.3585 33.155C30.7418 34.9774 28.5282 36.0342 26.1252 36.1306C22.472 36.278 18.7672 36.278 15.1134 36.1306C12.8762 36.0407 10.7707 35.1001 9.18483 33.4818C7.5985 31.863 6.67608 29.7127 6.58769 27.4272C6.54089 26.2072 6.51452 24.9782 6.50937 23.774C6.50832 23.5457 6.51414 23.3174 6.52445 23.0896C7.02538 24.4004 7.49299 25.141 7.53207 25.2017C7.64113 25.3712 7.82199 25.4632 8.00664 25.4632C8.11351 25.4632 8.22174 25.4323 8.31778 25.3679C8.57983 25.1922 8.65307 24.8323 8.48168 24.564C8.46372 24.5359 6.68069 21.6956 6.42583 17.1018C6.40107 16.6546 6.57035 16.224 6.89049 15.9204C7.21003 15.6175 7.64151 15.4774 8.0745 15.5363C9.82815 15.7747 12.5045 16.4651 15.2957 18.4006C15.5552 18.5807 15.9085 18.5113 16.0847 18.2458C16.2607 17.9803 16.193 17.619 15.9333 17.439C13.7545 15.928 11.6382 15.1291 9.92457 14.7093C10.4989 14.0657 11.1335 13.4826 11.8187 12.9649C12.5694 13.2897 13.3883 13.4639 14.2378 13.4639C15.7294 13.4639 17.0993 12.9208 18.1685 12.018V12.443C18.1685 13.3697 18.9054 14.1238 19.8113 14.1238H21.4276C22.3334 14.1238 23.0703 13.3697 23.0703 12.443V10.4323C26.2308 10.779 29.1668 12.3056 31.3139 14.7093C29.6004 15.1292 27.4842 15.9282 25.3055 17.439C25.0459 17.619 24.9782 17.9803 25.1542 18.2458C25.3304 18.5113 25.6836 18.5807 25.9431 18.4006C28.7343 16.4651 31.4107 15.7747 33.1643 15.5363C33.5974 15.4775 34.029 15.6176 34.3483 15.9204C34.6685 16.2239 34.8378 16.6546 34.813 17.1017C34.5582 21.6956 32.7752 24.5359 32.7572 24.564C32.5854 24.8319 32.6582 25.1916 32.92 25.3678C33.0162 25.4325 33.1245 25.4635 33.2317 25.4635C33.4163 25.4635 33.5975 25.3715 33.7067 25.2018C33.7458 25.1412 34.2134 24.4006 34.7143 23.0897C34.7246 23.3177 34.7305 23.5458 34.7294 23.7744C34.7242 24.9783 34.6979 26.2073 34.6511 27.4273C34.5974 28.824 34.2411 30.1534 33.5916 31.3785C33.4421 31.6606 33.5444 32.0132 33.8203 32.1661C33.9064 32.2138 33.999 32.2364 34.0905 32.2364C34.2921 32.2364 34.4875 32.1264 34.5904 31.9323C35.3235 30.5493 35.7258 29.0489 35.7863 27.4729C35.8336 26.2395 35.8603 24.9969 35.8655 23.7798C35.8707 22.6538 35.7476 21.5319 35.502 20.4417C35.7142 19.4773 35.88 18.3817 35.9473 17.1677C35.9913 16.3733 35.6901 15.6082 35.1208 15.0683ZM26.1699 37.2915C27.7883 37.2266 29.3305 36.7751 30.6987 35.9844V38.2096C30.6987 38.8187 30.2145 39.3141 29.6194 39.3141H25.6144C25.1721 39.3141 24.7797 39.0436 24.614 38.6243L24.112 37.3573C24.7993 37.3399 25.4857 37.3191 26.1699 37.2915ZM17.1269 37.3573L16.6248 38.6249C16.4593 39.0436 16.0668 39.3141 15.6246 39.3141H11.6196C11.0245 39.3141 10.5403 38.8187 10.5403 38.2096V35.9791C11.9142 36.7723 13.4613 37.227 15.069 37.2915C15.7534 37.3191 16.4398 37.3399 17.1269 37.3573Z" fill="#2B3445"/>
<path d="M32.0195 21.4067C32.1158 21.4715 32.2241 21.5024 32.3312 21.5024C32.5159 21.5024 32.6972 21.4104 32.8063 21.2408C32.8342 21.1973 33.4918 20.1577 33.5849 18.4797C33.6054 18.1079 33.4642 17.7498 33.1977 17.497C32.9313 17.2444 32.5717 17.1275 32.2113 17.1765C31.5711 17.2636 30.5956 17.5147 29.5831 18.2168C29.3234 18.3969 29.2557 18.7581 29.4317 19.0237C29.6079 19.2892 29.9611 19.3586 30.2207 19.1785C31.0496 18.6037 31.8421 18.3989 32.3609 18.3283C32.3857 18.3252 32.4073 18.3319 32.4254 18.349C32.4436 18.3663 32.4521 18.3881 32.4507 18.414C32.3763 19.7544 31.8668 20.5866 31.8559 20.6045C31.6852 20.8723 31.7582 21.2308 32.0195 21.4067Z" fill="#2B3445"/>
<path d="M8.87775 18.3282C9.39663 18.3988 10.1891 18.6035 11.0181 19.1784C11.2776 19.3585 11.6308 19.2891 11.807 19.0236C11.983 18.7581 11.9153 18.3968 11.6557 18.2167C10.6432 17.5146 9.66761 17.2635 9.02741 17.1764C8.66659 17.1273 8.3073 17.2442 8.041 17.4969C7.7744 17.7497 7.63331 18.1078 7.65391 18.4797C7.74699 20.1576 8.40454 21.1972 8.43249 21.2407C8.54163 21.4104 8.72279 21.5024 8.90751 21.5024C9.01468 21.5024 9.12306 21.4714 9.21925 21.4066C9.4813 21.2303 9.55394 20.8701 9.38156 20.602C9.3764 20.5939 8.86283 19.7613 8.78815 18.4138C8.78664 18.3879 8.79519 18.366 8.81344 18.3488C8.83132 18.3318 8.85321 18.325 8.87775 18.3282Z" fill="#2B3445"/>
<path d="M22.5868 23.6838C21.2813 23.6401 19.9574 23.6401 18.6519 23.6838C16.4587 23.7574 14.6978 25.5801 14.6426 27.8336C14.6306 28.3315 14.6306 28.8364 14.6426 29.3343C14.6978 31.5877 16.4587 33.4105 18.6519 33.4841C19.3046 33.506 19.962 33.5169 20.6194 33.5169C21.2768 33.5169 21.934 33.506 22.5869 33.4841C24.7799 33.4105 26.541 31.5878 26.596 29.3343C26.6082 28.8364 26.6082 28.3315 26.596 27.8336C26.5409 25.5802 24.7799 23.7574 22.5868 23.6838ZM25.4601 29.3053C25.4201 30.944 24.1416 32.2695 22.5494 32.3228C21.2688 32.3658 19.9697 32.3658 18.6891 32.3228C17.097 32.2695 15.8184 30.9441 15.7784 29.3053C15.7666 28.8267 15.7666 28.3413 15.7784 27.8626C15.8183 26.224 17.0969 24.8985 18.6891 24.8451C19.3293 24.8236 19.9744 24.8128 20.6192 24.8128C21.264 24.8128 21.9091 24.8236 22.5494 24.8451C24.1415 24.8985 25.42 26.2239 25.46 27.8626C25.4719 28.3412 25.4719 28.8267 25.4601 29.3053Z" fill="#2B3445"/>
<path d="M19.1924 27.4449C18.8787 27.4449 18.6244 27.7051 18.6244 28.026V29.2609C18.6244 29.5817 18.8787 29.8418 19.1924 29.8418C19.5063 29.8418 19.7605 29.5817 19.7605 29.2609V28.026C19.7605 27.7051 19.5063 27.4449 19.1924 27.4449Z" fill="#2B3445"/>
<path d="M22.0468 27.4449C21.7331 27.4449 21.4787 27.7051 21.4787 28.026V29.2609C21.4787 29.5817 21.7331 29.8418 22.0468 29.8418C22.3606 29.8418 22.6148 29.5817 22.6148 29.2609V28.026C22.6148 27.7051 22.3605 27.4449 22.0468 27.4449Z" fill="#2B3445"/>
<path d="M12.7508 27.7261C13.2827 27.7261 13.7151 26.9917 13.7151 26.0889C13.7151 25.1861 13.2826 24.4517 12.7508 24.4517C12.2192 24.4517 11.7867 25.1861 11.7867 26.0889C11.7867 26.9917 12.2192 27.7261 12.7508 27.7261Z" fill="#2B3445"/>
<path d="M28.4882 24.4517C27.9564 24.4517 27.524 25.1861 27.524 26.0889C27.524 26.9917 27.9565 27.7261 28.4882 27.7261C29.0199 27.7261 29.4524 26.9917 29.4524 26.0889C29.4524 25.1861 29.0199 24.4517 28.4882 24.4517Z" fill="#2B3445"/>
<path d="M14.1867 9.71501C13.4187 9.71919 13.1156 9.69061 12.4658 9.33252C12.1895 9.18023 11.8451 9.28589 11.6962 9.56838C11.5475 9.8509 11.6506 10.2032 11.9269 10.3554C12.5893 10.7204 13.0457 10.8348 13.6219 10.8662V11.2245C13.6219 11.5453 13.8761 11.8054 14.1899 11.8054C14.5038 11.8054 14.758 11.5453 14.758 11.2245V10.8247C15.9693 10.6021 16.7069 9.70014 16.8285 8.81091C16.97 7.77567 16.3216 6.88652 15.1768 6.5457C14.4534 6.33029 13.6515 6.06886 13.1884 5.76298C12.9727 5.62045 12.9744 5.39156 12.9945 5.26787C13.0369 5.00799 13.2455 4.68878 13.7044 4.57236C13.8897 4.52535 14.0626 4.50288 14.2221 4.49707C14.2265 4.49683 14.2308 4.49676 14.2351 4.49637C14.936 4.47492 15.3691 4.78204 15.3991 4.80396C15.6486 4.99397 16.0019 4.94324 16.1906 4.68932C16.3802 4.43387 16.3316 4.06942 16.0818 3.87531C16.052 3.85222 15.5599 3.47918 14.7579 3.36632V3.05579C14.7579 2.73496 14.5037 2.47485 14.1899 2.47485C13.876 2.47485 13.6218 2.73496 13.6218 3.05579V3.40203C13.5589 3.4145 13.4956 3.42814 13.4309 3.44456C12.6128 3.65215 12.0016 4.29281 11.8738 5.0767C11.7648 5.74539 12.0323 6.38234 12.5719 6.73881C13.0441 7.05081 13.7069 7.31812 14.8591 7.66119C15.4571 7.83919 15.7648 8.19961 15.7033 8.64995C15.6095 9.33685 14.8519 9.71137 14.1867 9.71501Z" fill="#2B3445"/>
</g>
<defs>
<clipPath id="clip0_1_192">
<rect width="40" height="40" fill="white" transform="translate(0.765625 0.5)"/>
</clipPath>
</defs>
</svg>
