<svg width="41" height="41" viewBox="0 0 41 41" fill="none" xmlns="http://www.w3.org/2000/svg">
<g clip-path="url(#clip0_1_209)">
<path d="M39.9838 22.1401C39.6274 18.5546 38.0256 15.1745 35.4734 12.6223C33.2922 10.4412 30.6226 9.03964 27.8136 8.41643V6.44624C28.9609 6.16082 29.8137 5.12229 29.8137 3.8879C29.8137 2.43414 28.631 1.25146 27.1773 1.25146H21.5942C20.1404 1.25146 18.9578 2.43414 18.9578 3.8879C18.9578 5.12222 19.8106 6.16074 20.9579 6.44624V8.42194C18.1574 9.04779 15.4966 10.4474 13.3217 12.6224C12.8458 13.0983 12.4069 13.5976 12.0051 14.1165C11.9857 14.115 11.9662 14.1135 11.9463 14.1135H6.42061C5.99242 14.1135 5.64519 14.4607 5.64519 14.8889C5.64519 15.3172 5.99242 15.6644 6.42061 15.6644H10.95C10.3815 16.6162 9.92299 17.6158 9.5741 18.6448H1.1348C0.706608 18.6448 0.359375 18.992 0.359375 19.4202C0.359375 19.8485 0.706608 20.1956 1.1348 20.1956H9.13591C8.91243 21.1766 8.78417 22.1749 8.75106 23.1761H5.32207C4.89389 23.1761 4.54665 23.5233 4.54665 23.9515C4.54665 24.3798 4.89389 24.7269 5.32207 24.7269H8.7758C8.84124 25.7306 9.00261 26.7291 9.25997 27.7074H4.23648C3.8083 27.7074 3.46106 28.0546 3.46106 28.4828C3.46106 28.9111 3.8083 29.2583 4.23648 29.2583H9.75484C10.5156 31.2705 11.7043 33.1566 13.3217 34.774C15.8764 37.3287 19.26 38.9309 22.8492 39.2855C23.3614 39.3361 23.874 39.3611 24.3859 39.3611C27.4118 39.3611 30.3992 38.4854 32.934 36.8347C33.2929 36.601 33.3944 36.1206 33.1607 35.7618C32.927 35.4029 32.4466 35.3014 32.0878 35.5351C26.5391 39.1484 19.1079 38.3671 14.4183 33.6774C8.91577 28.1748 8.91577 19.2216 14.4183 13.719C19.9208 8.21653 28.874 8.21653 34.3766 13.719C39.0601 18.4025 39.8457 25.8273 36.2443 31.3732C36.0111 31.7325 36.1132 32.2127 36.4723 32.4459C36.8317 32.6791 37.3118 32.577 37.5449 32.2179C39.4691 29.2545 40.3352 25.6756 39.9838 22.1401ZM20.5086 3.88798C20.5086 3.28935 20.9956 2.80239 21.5942 2.80239H27.1773C27.7759 2.80239 28.2628 3.28935 28.2628 3.88798C28.2628 4.4866 27.7759 4.97357 27.1773 4.97357H27.0381H21.7333H21.5942C20.9956 4.97357 20.5086 4.48652 20.5086 3.88798ZM22.5087 8.15535V6.52441H26.2627V8.15256C25.0161 8.0043 23.755 8.00523 22.5087 8.15535Z" fill="#2B3445"/>
<path d="M34.9253 33.4502C34.7206 33.4502 34.5213 33.5332 34.3772 33.6773C34.2321 33.8215 34.1499 34.0216 34.1499 34.2255C34.1499 34.4295 34.2321 34.6295 34.3772 34.7738C34.5213 34.9188 34.7207 35.001 34.9253 35.001C35.1293 35.001 35.3285 34.9188 35.4735 34.7738C35.6178 34.6295 35.7007 34.4295 35.7007 34.2255C35.7007 34.0216 35.6179 33.8215 35.4735 33.6773C35.3285 33.5332 35.1292 33.4502 34.9253 33.4502Z" fill="#2B3445"/>
<path d="M24.3975 11.6682C17.7647 11.6682 12.3685 17.0643 12.3685 23.6972C12.3685 30.3301 17.7647 35.7262 24.3975 35.7262C31.0303 35.7262 36.4265 30.3301 36.4265 23.6972C36.4265 17.0643 31.0303 11.6682 24.3975 11.6682ZM24.3975 34.1754C18.6198 34.1754 13.9193 29.4749 13.9193 23.6972C13.9193 17.9195 18.6198 13.219 24.3975 13.219C30.1753 13.219 34.8757 17.9195 34.8757 23.6972C34.8757 29.4749 30.1753 34.1754 24.3975 34.1754Z" fill="#2B3445"/>
<path d="M29.3025 17.6969L25.4619 21.5375C25.1406 21.3787 24.7794 21.289 24.3975 21.289C24.0156 21.289 23.6543 21.3787 23.3332 21.5375L21.6142 19.8186C21.3114 19.5159 20.8205 19.5159 20.5176 19.8186C20.2148 20.1215 20.2148 20.6124 20.5176 20.9152L22.2364 22.6342C22.0776 22.9553 21.9879 23.3165 21.9879 23.6984C21.9879 25.0271 23.0688 26.108 24.3975 26.108C25.7261 26.108 26.807 25.0271 26.807 23.6984C26.807 23.3165 26.7173 22.9553 26.5585 22.6342L30.2864 18.9062L30.3991 18.7935C30.7019 18.4907 30.7019 17.9998 30.3991 17.6969C30.0963 17.3942 29.6055 17.3942 29.3025 17.6969ZM24.3975 24.5572C23.924 24.5572 23.5388 24.1721 23.5388 23.6985C23.5388 23.2251 23.924 22.8399 24.3975 22.8399C24.871 22.8399 25.2562 23.2251 25.2562 23.6985C25.2562 24.1721 24.871 24.5572 24.3975 24.5572Z" fill="#2B3445"/>
<path d="M32.6882 22.9312H31.9698C31.5417 22.9312 31.1944 23.2783 31.1944 23.7066C31.1944 24.1349 31.5417 24.482 31.9698 24.482H32.6882C33.1164 24.482 33.4637 24.1349 33.4637 23.7066C33.4637 23.2783 33.1164 22.9312 32.6882 22.9312Z" fill="#2B3445"/>
<path d="M16.8251 22.9126H16.1068C15.6786 22.9126 15.3314 23.2597 15.3314 23.688C15.3314 24.1163 15.6786 24.4635 16.1068 24.4635H16.8251C17.2533 24.4635 17.6005 24.1163 17.6005 23.688C17.6005 23.2597 17.2533 22.9126 16.8251 22.9126Z" fill="#2B3445"/>
<path d="M24.407 16.9005C24.8352 16.9005 25.1824 16.5533 25.1824 16.1251V15.4068C25.1824 14.9785 24.8352 14.6313 24.407 14.6313C23.9788 14.6313 23.6316 14.9785 23.6316 15.4068V16.1251C23.6316 16.5533 23.9788 16.9005 24.407 16.9005Z" fill="#2B3445"/>
<path d="M24.388 30.4944C23.9598 30.4944 23.6126 30.8415 23.6126 31.2698V31.9882C23.6126 32.4164 23.9598 32.7636 24.388 32.7636C24.8162 32.7636 25.1635 32.4164 25.1635 31.9882V31.2698C25.1635 30.8415 24.8162 30.4944 24.388 30.4944Z" fill="#2B3445"/>
<path d="M1.13478 27.708C0.930851 27.708 0.730796 27.791 0.58657 27.9352C0.442344 28.0794 0.359375 28.2794 0.359375 28.4833C0.359375 28.6881 0.442266 28.8873 0.58657 29.0316C0.730874 29.1758 0.930851 29.2588 1.13478 29.2588C1.33872 29.2588 1.53877 29.1758 1.68292 29.0316C1.82715 28.8873 1.91019 28.6873 1.91019 28.4833C1.91019 28.2794 1.82722 28.0794 1.68292 27.9352C1.53877 27.791 1.33872 27.708 1.13478 27.708Z" fill="#2B3445"/>
</g>
<defs>
<clipPath id="clip0_1_209">
<rect width="40" height="40" fill="white" transform="translate(0.359375 0.5)"/>
</clipPath>
</defs>
</svg>
