<svg width="16" height="17" viewBox="0 0 16 17" fill="none" xmlns="http://www.w3.org/2000/svg">
<path d="M7.0625 1.9375V6.3125C7.0625 6.64402 6.9308 6.96196 6.69638 7.19638C6.46196 7.4308 6.14402 7.5625 5.8125 7.5625H1.4375C1.10598 7.5625 0.788037 7.4308 0.553616 7.19638C0.319196 6.96196 0.1875 6.64402 0.1875 6.3125V1.9375C0.1875 1.60598 0.319196 1.28804 0.553616 1.05362C0.788037 0.819196 1.10598 0.6875 1.4375 0.6875H5.8125C6.14402 0.6875 6.46196 0.819196 6.69638 1.05362C6.9308 1.28804 7.0625 1.60598 7.0625 1.9375ZM14.5625 0.6875H10.1875C9.85598 0.6875 9.53804 0.819196 9.30362 1.05362C9.0692 1.28804 8.9375 1.60598 8.9375 1.9375V6.3125C8.9375 6.64402 9.0692 6.96196 9.30362 7.19638C9.53804 7.4308 9.85598 7.5625 10.1875 7.5625H14.5625C14.894 7.5625 15.212 7.4308 15.4464 7.19638C15.6808 6.96196 15.8125 6.64402 15.8125 6.3125V1.9375C15.8125 1.60598 15.6808 1.28804 15.4464 1.05362C15.212 0.819196 14.894 0.6875 14.5625 0.6875ZM5.8125 9.4375H1.4375C1.10598 9.4375 0.788037 9.5692 0.553616 9.80362C0.319196 10.038 0.1875 10.356 0.1875 10.6875V15.0625C0.1875 15.394 0.319196 15.712 0.553616 15.9464C0.788037 16.1808 1.10598 16.3125 1.4375 16.3125H5.8125C6.14402 16.3125 6.46196 16.1808 6.69638 15.9464C6.9308 15.712 7.0625 15.394 7.0625 15.0625V10.6875C7.0625 10.356 6.9308 10.038 6.69638 9.80362C6.46196 9.5692 6.14402 9.4375 5.8125 9.4375ZM12.375 9.4375C11.6951 9.4375 11.0305 9.63911 10.4652 10.0168C9.89993 10.3945 9.45934 10.9314 9.19916 11.5595C8.93899 12.1876 8.87091 12.8788 9.00355 13.5456C9.13619 14.2124 9.46358 14.8249 9.94432 15.3057C10.4251 15.7864 11.0376 16.1138 11.7044 16.2464C12.3712 16.3791 13.0624 16.311 13.6905 16.0508C14.3186 15.7907 14.8555 15.3501 15.2332 14.7848C15.6109 14.2195 15.8125 13.5549 15.8125 12.875C15.8125 11.9633 15.4503 11.089 14.8057 10.4443C14.161 9.79966 13.2867 9.4375 12.375 9.4375Z" fill="#2B3445"/>
</svg>
