<svg width="93" height="44" viewBox="0 0 93 44" fill="none" xmlns="http://www.w3.org/2000/svg">
<g clip-path="url(#clip0_1_32)">
<path d="M17.0455 3.81237C20.0402 2.08338 23.7298 2.08338 26.7245 3.81237L35.1185 8.65864C38.1132 10.3876 39.958 13.583 39.958 17.0409V26.7335C39.958 30.1914 38.1132 33.3868 35.1185 35.1158L26.7245 39.9621C23.7298 41.691 20.0402 41.691 17.0455 39.9621L8.65147 35.1158C5.65676 33.3868 3.81195 30.1914 3.81195 26.7335V17.0409C3.81195 13.583 5.65676 10.3876 8.65146 8.65864L17.0455 3.81237Z" stroke="#4B566B" stroke-width="1.75982"/>
<path d="M28.1921 20.8777C28.0735 20.8931 27.952 20.9024 27.8243 20.9024C27.034 20.9024 26.3288 20.5515 25.8455 20.0099C25.3622 20.5515 24.6571 20.9024 23.8637 20.9024C23.0704 20.9024 22.3652 20.5515 21.8819 20.0099C21.3986 20.5515 20.6965 20.9024 19.9001 20.9024C19.1098 20.9024 18.4047 20.5515 17.9213 20.0099C17.438 20.5515 16.7328 20.9024 15.9383 20.9024C15.8149 20.9024 15.6906 20.8931 15.57 20.8777C13.8884 20.65 13.0928 18.6434 13.9921 17.2031L15.7347 14.4127C15.8897 14.1618 16.1666 14.0085 16.4624 14.0085H27.3075C27.6024 14.0085 27.879 14.1618 28.034 14.4127L29.7757 17.2031C30.6785 18.6465 29.8791 20.65 28.1921 20.8777ZM28.3198 21.8533C28.4231 21.8379 28.572 21.8134 28.6936 21.7826V27.7961C28.6936 28.8825 27.8212 29.7657 26.7482 29.7657H17.0216C15.9474 29.7657 15.0763 28.8825 15.0763 27.7961V21.7826C15.194 21.8134 15.3152 21.8379 15.4402 21.8533H15.4438C15.6037 21.8749 15.7702 21.8872 15.9383 21.8872C16.3165 21.8872 16.6812 21.8287 17.0216 21.721V25.8265H26.7482V21.724C27.0887 21.8287 27.4504 21.8872 27.8243 21.8872C27.9945 21.8872 28.1587 21.8749 28.3198 21.8533Z" fill="#2B3445"/>
<path d="M80.5118 10.561H45.3154C39.2409 10.561 34.3165 15.4854 34.3165 21.5599C34.3165 27.6344 39.2409 32.5588 45.3154 32.5588H80.5118C86.5864 32.5588 91.5107 27.6344 91.5107 21.5599C91.5107 15.4854 86.5864 10.561 80.5118 10.561Z" fill="#2B3445" stroke="#2B3445" stroke-width="1.75982"/>
<path d="M79.6612 15.7593H38.5175V27.4167H79.6612V15.7593Z" fill="#2B3445"/>
<path d="M63.2585 18.7466C63.3741 18.7466 63.4896 18.7725 63.6051 18.8245C63.7265 18.8708 63.8305 18.9344 63.9172 19.0152C64.0154 19.1077 64.0876 19.2116 64.1338 19.3272C64.18 19.4428 64.2031 19.5612 64.2031 19.6825C64.2089 19.8038 64.1887 19.9222 64.1424 20.0379C64.0962 20.1534 64.0298 20.2545 63.9431 20.3412L59.3935 24.9255H63.4318C63.5647 24.9255 63.6889 24.9514 63.8044 25.0035C63.92 25.0555 64.0183 25.1248 64.0991 25.2115C64.1858 25.2981 64.2522 25.3992 64.2984 25.5148C64.3504 25.6246 64.3764 25.743 64.3764 25.8701C64.3764 25.9972 64.3504 26.1185 64.2984 26.2341C64.2522 26.3496 64.1858 26.4507 64.0991 26.5374C64.0183 26.6183 63.92 26.6847 63.8044 26.7367C63.6889 26.7829 63.5647 26.806 63.4318 26.806H57.2789C57.1171 26.806 56.9698 26.7714 56.837 26.702C56.7041 26.6269 56.5972 26.5287 56.5163 26.4073C56.3661 26.2051 56.2997 25.9827 56.317 25.7401C56.3344 25.5436 56.4152 25.3732 56.5596 25.2288L61.1007 20.6271H57.3483C57.2211 20.6271 57.0998 20.6011 56.9843 20.5491C56.8687 20.4971 56.7705 20.4278 56.6897 20.3412C56.6087 20.2545 56.5423 20.1534 56.4903 20.0379C56.4441 19.9165 56.4209 19.7923 56.4209 19.6652C56.4209 19.5381 56.4441 19.4196 56.4903 19.3099C56.5423 19.1943 56.6087 19.0961 56.6897 19.0152C56.7705 18.9344 56.8687 18.8708 56.9843 18.8245C57.0998 18.7725 57.2211 18.7466 57.3483 18.7466H63.2585Z" fill="white"/>
<path d="M84.5922 25.8788C84.5922 26.0058 84.569 26.1272 84.5228 26.2427C84.4766 26.3582 84.4102 26.4564 84.3235 26.5374C84.2427 26.6183 84.1473 26.6847 84.0375 26.7367C83.9277 26.7829 83.8093 26.806 83.6822 26.806C83.5494 26.806 83.4222 26.7829 83.3009 26.7367C83.1854 26.6847 83.0842 26.6183 82.9976 26.5374C82.9109 26.4564 82.8416 26.3582 82.7896 26.2427C82.7376 26.1272 82.7116 26.0058 82.7116 25.8788V23.0796C82.7116 22.4845 82.8242 21.9241 83.0496 21.3984C83.2806 20.8726 83.5927 20.4133 83.9855 20.0205C84.3784 19.6276 84.8377 19.3185 85.3634 19.0932C85.8891 18.8621 86.4467 18.7466 87.036 18.7466H87.0534C87.3653 18.7466 87.6051 18.8362 87.7726 19.0152C87.9459 19.1886 88.0324 19.411 88.0324 19.6825C88.0324 19.8154 88.0069 19.9396 87.9546 20.0552C87.9026 20.1707 87.8304 20.2718 87.7379 20.3585C87.6513 20.4394 87.5472 20.5058 87.4259 20.5578C87.3104 20.604 87.1862 20.6271 87.0534 20.6271H87.036C86.7067 20.6271 86.3918 20.6907 86.0913 20.8178C85.7968 20.9449 85.5396 21.1182 85.3201 21.3377C85.1006 21.5573 84.9243 21.8144 84.7915 22.109C84.6586 22.4037 84.5922 22.7185 84.5922 23.0536V25.8788Z" fill="white"/>
<path d="M47.5224 22.8803C47.5224 22.3083 47.6321 21.7739 47.8517 21.277C48.0712 20.7744 48.3688 20.3353 48.7443 19.9598C49.1198 19.5843 49.556 19.2897 50.0528 19.0758C50.5555 18.8563 51.0899 18.7466 51.6561 18.7466C52.2281 18.7466 52.7653 18.8563 53.268 19.0758C53.7706 19.2897 54.2068 19.5843 54.5766 19.9598C54.9521 20.3353 55.2467 20.7744 55.4605 21.277C55.6742 21.7739 55.7812 22.3083 55.7812 22.8803V25.948C55.7812 26.081 55.7551 26.2051 55.7032 26.3207C55.6569 26.4363 55.5905 26.5374 55.5038 26.6241C55.4171 26.7107 55.3132 26.78 55.1919 26.832C55.0763 26.884 54.9521 26.91 54.8192 26.91C54.5939 26.91 54.4032 26.8436 54.2473 26.7107C54.0913 26.5778 53.9873 26.4103 53.9353 26.208C53.6059 26.4564 53.2478 26.6529 52.8606 26.7973C52.4794 26.9418 52.0779 27.014 51.6561 27.014C51.0899 27.014 50.5555 26.9071 50.0528 26.6933C49.556 26.4738 49.1198 26.1763 48.7443 25.8007C48.3688 25.4252 48.0712 24.9861 47.8517 24.4835C47.6321 23.9809 47.5224 23.4464 47.5224 22.8803ZM49.4029 22.8803C49.4029 23.1865 49.4607 23.4782 49.5762 23.7556C49.6975 24.0271 49.8594 24.2669 50.0616 24.4749C50.2696 24.6771 50.5093 24.8388 50.7808 24.9602C51.0523 25.0757 51.3441 25.1335 51.6561 25.1335C51.9681 25.1335 52.2598 25.0757 52.5314 24.9602C52.8087 24.8388 53.0484 24.6771 53.2506 24.4749C53.4528 24.2669 53.6117 24.0271 53.7273 23.7556C53.8428 23.4782 53.9006 23.1865 53.9006 22.8803C53.9006 22.5683 53.8428 22.2765 53.7273 22.005C53.6117 21.7277 53.4528 21.4879 53.2506 21.2857C53.0484 21.0835 52.8087 20.9246 52.5314 20.8091C52.2598 20.6878 51.9681 20.6271 51.6561 20.6271C51.3499 20.6271 51.0581 20.6878 50.7808 20.8091C50.5093 20.9246 50.2696 21.0835 50.0616 21.2857C49.8594 21.4879 49.6975 21.7277 49.5762 22.005C49.4607 22.2765 49.4029 22.5683 49.4029 22.8803Z" fill="white"/>
<path d="M73.9125 22.8803C73.9125 22.3083 74.0223 21.7739 74.2418 21.277C74.4614 20.7744 74.7589 20.3353 75.1344 19.9598C75.51 19.5843 75.9461 19.2897 76.443 19.0758C76.9456 18.8563 77.48 18.7466 78.0462 18.7466C78.6181 18.7466 79.1554 18.8563 79.6581 19.0758C80.1607 19.2897 80.5969 19.5843 80.9666 19.9598C81.3422 20.3353 81.6369 20.7744 81.8506 21.277C82.0643 21.7739 82.1712 22.3083 82.1712 22.8803V25.948C82.1712 26.081 82.1453 26.2051 82.0933 26.3207C82.047 26.4363 81.9806 26.5374 81.894 26.6241C81.8073 26.7107 81.7033 26.78 81.582 26.832C81.4664 26.884 81.3422 26.91 81.2093 26.91C80.984 26.91 80.7934 26.8436 80.6374 26.7107C80.4814 26.5778 80.3774 26.4103 80.3254 26.208C79.9961 26.4564 79.6379 26.6529 79.2508 26.7973C78.8695 26.9418 78.4679 27.014 78.0462 27.014C77.48 27.014 76.9456 26.9071 76.443 26.6933C75.9461 26.4738 75.51 26.1763 75.1344 25.8007C74.7589 25.4252 74.4614 24.9861 74.2418 24.4835C74.0223 23.9809 73.9125 23.4464 73.9125 22.8803ZM75.793 22.8803C75.793 23.1865 75.8508 23.4782 75.9664 23.7556C76.0877 24.0271 76.2494 24.2669 76.4516 24.4749C76.6596 24.6771 76.8994 24.8388 77.171 24.9602C77.4424 25.0757 77.7342 25.1335 78.0462 25.1335C78.3581 25.1335 78.6499 25.0757 78.9215 24.9602C79.1988 24.8388 79.4386 24.6771 79.6408 24.4749C79.843 24.2669 80.0018 24.0271 80.1173 23.7556C80.233 23.4782 80.2907 23.1865 80.2907 22.8803C80.2907 22.5683 80.233 22.2765 80.1173 22.005C80.0018 21.7277 79.843 21.4879 79.6408 21.2857C79.4386 21.0835 79.1988 20.9246 78.9215 20.8091C78.6499 20.6878 78.3581 20.6271 78.0462 20.6271C77.74 20.6271 77.4482 20.6878 77.171 20.8091C76.8994 20.9246 76.6596 21.0835 76.4516 21.2857C76.2494 21.4879 76.0877 21.7277 75.9664 22.005C75.8508 22.2765 75.793 22.5683 75.793 22.8803Z" fill="white"/>
<path d="M65.1134 22.8803C65.1134 22.3083 65.2232 21.7739 65.4428 21.277C65.6623 20.7744 65.9598 20.3353 66.3353 19.9598C66.7109 19.5843 67.1471 19.2897 67.6439 19.0758C68.1465 18.8563 68.6809 18.7466 69.2471 18.7466C69.8191 18.7466 70.3564 18.8563 70.859 19.0758C71.3616 19.2897 71.7978 19.5843 72.1676 19.9598C72.5431 20.3353 72.8378 20.7744 73.0515 21.277C73.2652 21.7739 73.3722 22.3083 73.3722 22.8803V25.948C73.3722 26.081 73.3462 26.2051 73.2942 26.3207C73.2479 26.4363 73.1815 26.5374 73.0949 26.6241C73.0082 26.7107 72.9042 26.78 72.7829 26.832C72.6673 26.884 72.5431 26.91 72.4102 26.91C72.1849 26.91 71.9943 26.8436 71.8383 26.7107C71.6823 26.5778 71.5783 26.4103 71.5263 26.208C71.197 26.4564 70.8388 26.6529 70.4517 26.7973C70.0704 26.9418 69.6689 27.014 69.2471 27.014C68.6809 27.014 68.1465 26.9071 67.6439 26.6933C67.1471 26.4738 66.7109 26.1763 66.3353 25.8007C65.9598 25.4252 65.6623 24.9861 65.4428 24.4835C65.2232 23.9809 65.1134 23.4464 65.1134 22.8803ZM66.9939 22.8803C66.9939 23.1865 67.0518 23.4782 67.1673 23.7556C67.2886 24.0271 67.4504 24.2669 67.6526 24.4749C67.8606 24.6771 68.1003 24.8388 68.3719 24.9602C68.6433 25.0757 68.9351 25.1335 69.2471 25.1335C69.5591 25.1335 69.8508 25.0757 70.1224 24.9602C70.3997 24.8388 70.6395 24.6771 70.8417 24.4749C71.0439 24.2669 71.2027 24.0271 71.3183 23.7556C71.4339 23.4782 71.4916 23.1865 71.4916 22.8803C71.4916 22.5683 71.4339 22.2765 71.3183 22.005C71.2027 21.7277 71.0439 21.4879 70.8417 21.2857C70.6395 21.0835 70.3997 20.9246 70.1224 20.8091C69.8508 20.6878 69.5591 20.6271 69.2471 20.6271C68.9409 20.6271 68.6491 20.6878 68.3719 20.8091C68.1003 20.9246 67.8606 21.0835 67.6526 21.2857C67.4504 21.4879 67.2886 21.7277 67.1673 22.005C67.0518 22.2765 66.9939 22.5683 66.9939 22.8803Z" fill="white"/>
<mask id="mask0_1_32" style="mask-type:alpha" maskUnits="userSpaceOnUse" x="38" y="15" width="9" height="13">
<path d="M38.5175 16.7385C38.5175 16.5999 38.5406 16.4728 38.5868 16.3573C38.6388 16.2359 38.7052 16.1319 38.7861 16.0452C38.8728 15.9528 38.9739 15.8835 39.0894 15.8372C39.2049 15.7852 39.3292 15.7593 39.462 15.7593C39.6007 15.7593 39.725 15.7852 39.8347 15.8372C39.9502 15.8835 40.0484 15.9528 40.1294 16.0452C40.216 16.1319 40.2825 16.2359 40.3287 16.3573C40.3749 16.4728 40.398 16.5999 40.398 16.7385V19.4423C40.7273 19.2286 41.0798 19.064 41.4552 18.9484C41.8366 18.8271 42.2352 18.7664 42.6512 18.7664C43.2231 18.7664 43.7575 18.8762 44.2544 19.0957C44.757 19.3095 45.1932 19.6041 45.563 19.9797C45.9385 20.3494 46.2331 20.7856 46.4469 21.2882C46.6665 21.7909 46.7762 22.3282 46.7762 22.9001C46.7762 23.4663 46.6665 24.0007 46.4469 24.5033C46.2331 25.006 45.9385 25.4451 45.563 25.8206C45.1932 26.1961 44.757 26.4937 44.2544 26.7132C43.7575 26.9269 43.2231 27.0338 42.6512 27.0338C42.085 27.0338 41.5506 26.9269 41.0479 26.7132C40.5453 26.4937 40.1062 26.1961 39.7307 25.8206C39.3551 25.4451 39.0576 25.006 38.8381 24.5033C38.6244 24.0007 38.5175 23.4663 38.5175 22.9001V16.7385ZM40.398 22.9001C40.398 23.2063 40.4557 23.4981 40.5713 23.7754C40.6926 24.0469 40.8544 24.2867 41.0566 24.4947C41.2646 24.6969 41.5043 24.8586 41.7759 24.9799C42.0474 25.0955 42.3392 25.1533 42.6512 25.1533C42.9631 25.1533 43.2549 25.0955 43.5264 24.9799C43.798 24.8586 44.0349 24.6969 44.2371 24.4947C44.4451 24.2867 44.6068 24.0469 44.7223 23.7754C44.8379 23.4981 44.8957 23.2063 44.8957 22.9001C44.8957 22.5881 44.8379 22.2964 44.7223 22.0249C44.6068 21.7475 44.4451 21.5077 44.2371 21.3055C44.0349 21.1033 43.798 20.9445 43.5264 20.8289C43.2549 20.7076 42.9631 20.6469 42.6512 20.6469C42.3392 20.6469 42.0474 20.7076 41.7759 20.8289C41.5043 20.9445 41.2646 21.1033 41.0566 21.3055C40.8544 21.5077 40.6926 21.7475 40.5713 22.0249C40.4557 22.2964 40.398 22.5881 40.398 22.9001Z" fill="black"/>
</mask>
<g mask="url(#mask0_1_32)">
<path d="M47.1727 18.2869H38.058V27.4782H47.1727V18.2869Z" fill="white"/>
<path d="M39.2032 22.7496C39.2032 20.7826 40.7978 19.188 42.7648 19.188H47.3221V26.3112H42.7648C40.7978 26.3112 39.2032 24.7166 39.2032 22.7496Z" fill="white"/>
<path d="M42.6152 25.0272C43.8208 25.0272 44.7982 24.0499 44.7982 22.8443C44.7982 21.6387 43.8208 20.6614 42.6152 20.6614C41.4096 20.6614 40.4323 21.6387 40.4323 22.8443C40.4323 24.0499 41.4096 25.0272 42.6152 25.0272Z" fill="white"/>
<path d="M38.0967 18.287L47.1348 9.24878V18.287H38.0967Z" fill="white"/>
<path d="M47.1726 9.24878L38.1345 18.287V9.24878H47.1726Z" fill="white"/>
<path d="M43.784 22.6167L34.7459 31.6548V22.6167H43.784Z" fill="white"/>
<path d="M42.6152 23.725C43.1017 23.725 43.496 23.3307 43.496 22.8442C43.496 22.3577 43.1017 21.9634 42.6152 21.9634C42.1287 21.9634 41.7344 22.3577 41.7344 22.8442C41.7344 23.3307 42.1287 23.725 42.6152 23.725Z" fill="white"/>
<path d="M42.577 20.6614C42.8636 20.6614 43.1475 20.7179 43.4124 20.8275C43.6772 20.9372 43.9179 21.0981 44.1205 21.3007C44.3232 21.5035 44.4841 21.7441 44.5937 22.009C44.7034 22.2738 44.7599 22.5577 44.7599 22.8443C44.7599 23.1309 44.7034 23.4148 44.5937 23.6796C44.4841 23.9445 44.3232 24.1852 44.1205 24.3879C43.9179 24.5906 43.6772 24.7514 43.4124 24.8611C43.1475 24.9707 42.8636 25.0272 42.577 25.0272V22.8443V20.6614Z" fill="white"/>
</g>
</g>
<defs>
<clipPath id="clip0_1_32">
<rect width="92.3906" height="43.9955" fill="white" transform="translate(0 0.00219727)"/>
</clipPath>
</defs>
</svg>
